<?xml version="1.0" encoding="UTF-8" standalone="no"?>
<!-- Created with Inkscape (http://www.inkscape.org/) -->

<svg
   width="16"
   height="16"
   viewBox="0 0 4.2333333 4.2333331"
   version="1.1"
   id="svg1"
   inkscape:version="1.3 (0e150ed6c4, 2023-07-21)"
   sodipodi:docname="fire_bullet_class.svg"
   xmlns:inkscape="http://www.inkscape.org/namespaces/inkscape"
   xmlns:sodipodi="http://sodipodi.sourceforge.net/DTD/sodipodi-0.dtd"
   xmlns="http://www.w3.org/2000/svg"
   xmlns:svg="http://www.w3.org/2000/svg">
  <sodipodi:namedview
     id="namedview1"
     pagecolor="#505050"
     bordercolor="#ffffff"
     borderopacity="1"
     inkscape:showpageshadow="0"
     inkscape:pageopacity="0"
     inkscape:pagecheckerboard="1"
     inkscape:deskcolor="#505050"
     inkscape:document-units="mm"
     showgrid="true"
     inkscape:zoom="32"
     inkscape:cx="8.078125"
     inkscape:cy="8.390625"
     inkscape:window-width="1920"
     inkscape:window-height="1017"
     inkscape:window-x="-8"
     inkscape:window-y="-8"
     inkscape:window-maximized="1"
     inkscape:current-layer="layer1">
    <inkscape:grid
       id="grid1"
       units="px"
       originx="0"
       originy="0"
       spacingx="0.26458333"
       spacingy="0.26458333"
       empcolor="#0099e5"
       empopacity="0.30196078"
       color="#0099e5"
       opacity="0.14901961"
       empspacing="4"
       dotted="false"
       gridanglex="30"
       gridanglez="30"
       visible="true" />
  </sodipodi:namedview>
  <defs
     id="defs1" />
  <g
     inkscape:label="Layer 1"
     inkscape:groupmode="layer"
     id="layer1">
    <path
       id="rect1"
       style="fill:#f3924a;fill-opacity:1;stroke-width:0.324047"
       d="m 3.7041666,1.0691854 v 1.0583333 h 0.2645833 c 0.146579,0 0.2645833,-0.1180043 0.2645833,-0.2645833 V 1.3337687 c 0,-0.146579 -0.1180043,-0.2645833 -0.2645833,-0.2645833 z" />
    <path
       id="rect2"
       style="fill:#f3924a;fill-opacity:1;stroke-width:0.266443"
       d="m 2.7843261,0.52916666 c -0.076752,0 -0.1384929,0.0617409 -0.1384929,0.13849284 V 0.79375 H 1.709973 1.2578043 0.79736727 c -0.14864635,0 -0.26820068,0.11955433 -0.26820068,0.2682007 v 1.0510986 c 0,0.04902 0.0128974,0.094911 0.0356567,0.1343587 L 0.18241773,3.6762614 C 0.13896713,3.8384211 0.23881326,3.96875 0.40669344,3.96875 H 0.85886222 C 1.0267423,3.96875 1.1973006,3.8384211 1.240751,3.6762614 L 1.5874999,2.38125 h 1.5838826 c 0.1486465,0 0.2682007,-0.1195545 0.2682007,-0.2682007 V 1.0619507 c 0,-0.14742325 -0.117639,-0.26625367 -0.2645833,-0.2682007 V 0.6676595 0.52916666 H 3.0365071 2.9104166 Z M 0.92604159,1.8520833 H 3.0427082 c 0.07329,0 0.1322917,0.059002 0.1322917,0.1322917 0,0.073289 -0.059002,0.1322916 -0.1322917,0.1322916 H 0.92604159 c -0.0732895,0 -0.13229167,-0.059002 -0.13229167,-0.1322916 0,-0.07329 0.0590022,-0.1322917 0.13229167,-0.1322917 z m -0.0609782,0.79375 h 0.245463 c 0.1517498,0 0.2423641,0.1180043 0.2030884,0.2645833 L 1.1720214,3.4395833 C 1.1327457,3.5861623 0.97908936,3.7041666 0.8273396,3.7041666 H 0.58135978 c -0.15174976,0 -0.2423641,-0.1180043 -0.20308838,-0.2645833 L 0.51986483,2.9104166 C 0.55914056,2.7638376 0.71331364,2.6458333 0.8650634,2.6458333 Z" />
    <path
       style="fill:#f3924a;fill-opacity:1;stroke:none;stroke-width:0;stroke-dasharray:none"
       d="m 1.6953781,2.9072091 c -0.024355,-0.00595 -0.061212,-0.029177 -0.073344,-0.046214 -0.04116,-0.057804 -0.034104,-0.1339189 0.016425,-0.17717 0.038316,-0.032797 0.044058,-0.033492 0.2767757,-0.033492 H 2.124705 v -0.214595 -0.214595 l 0.01411,-0.027824 c 0.033077,-0.06522 0.1085083,-0.089165 0.1742736,-0.055321 0.02777,0.014291 0.054972,0.046778 0.062816,0.07502 0.00337,0.012119 0.00532,0.1247963 0.00534,0.307914 3.1e-5,0.3120859 6.086e-4,0.3050551 -0.027735,0.3422057 -0.00663,0.00869 -0.024453,0.02267 -0.039609,0.031064 l -0.02756,0.015263 -0.2873536,8.599e-4 C 1.8409425,2.910798 1.7043182,2.9093957 1.6953773,2.9072147 Z"
       id="path12" />
    <path
       style="fill:#f3924a;fill-opacity:1;stroke:none;stroke-width:0;stroke-dasharray:none"
       d="M 0.52916656,2.2479247 V 2.1166666 H 0.66042471 0.79168283 V 2.2479247 2.3791828 H 0.66042471 0.52916656 Z"
       id="path16" />
  </g>
</svg>
