<?xml version="1.0" encoding="UTF-8" standalone="no"?>
<!-- Created with Inkscape (http://www.inkscape.org/) -->

<svg
   width="16"
   height="16"
   viewBox="0 0 4.2333333 4.2333331"
   version="1.1"
   id="svg1"
   inkscape:version="1.3 (0e150ed6c4, 2023-07-21)"
   sodipodi:docname="gun_container_class.svg"
   xmlns:inkscape="http://www.inkscape.org/namespaces/inkscape"
   xmlns:sodipodi="http://sodipodi.sourceforge.net/DTD/sodipodi-0.dtd"
   xmlns="http://www.w3.org/2000/svg"
   xmlns:svg="http://www.w3.org/2000/svg">
  <sodipodi:namedview
     id="namedview1"
     pagecolor="#505050"
     bordercolor="#ffffff"
     borderopacity="1"
     inkscape:showpageshadow="0"
     inkscape:pageopacity="0"
     inkscape:pagecheckerboard="1"
     inkscape:deskcolor="#505050"
     inkscape:document-units="mm"
     showgrid="true"
     inkscape:zoom="32"
     inkscape:cx="10.671875"
     inkscape:cy="7.046875"
     inkscape:window-width="1920"
     inkscape:window-height="1017"
     inkscape:window-x="-8"
     inkscape:window-y="-8"
     inkscape:window-maximized="1"
     inkscape:current-layer="layer1">
    <inkscape:grid
       id="grid1"
       units="px"
       originx="0"
       originy="0"
       spacingx="0.26458333"
       spacingy="0.26458333"
       empcolor="#0099e5"
       empopacity="0.30196078"
       color="#0099e5"
       opacity="0.14901961"
       empspacing="4"
       dotted="false"
       gridanglex="30"
       gridanglez="30"
       visible="true" />
  </sodipodi:namedview>
  <defs
     id="defs1" />
  <g
     inkscape:label="Layer 1"
     inkscape:groupmode="layer"
     id="layer1">
    <path
       id="path12"
       style="fill:#f3924a;fill-opacity:1;stroke-width:0.243035"
       inkscape:label="gun"
       d="M 3.824056 1.8603516 L 3.824056 2.0034953 C 3.824056 2.0977823 3.7589826 2.1758058 3.6710937 2.1962484 L 3.6710937 2.6541016 L 3.8695312 2.6541016 C 3.9794653 2.6541016 4.0679687 2.5655985 4.0679687 2.4556641 L 4.0679687 2.0587891 C 4.0679687 1.9488551 3.9794656 1.8603516 3.8695312 1.8603516 L 3.824056 1.8603516 z M 3.2282267 2.2019328 C 3.2226147 2.308296 3.135549 2.3921021 3.0277222 2.3921021 L 2.4349935 2.3921021 C 2.4351212 2.408208 2.4350291 2.4289282 2.4349935 2.4473958 L 3.175 2.4473958 C 3.2299669 2.4473958 3.2742187 2.4916476 3.2742187 2.5466146 C 3.2742187 2.6015815 3.2299679 2.6458333 3.175 2.6458333 L 2.4344767 2.6458333 C 2.4333163 2.7266195 2.429219 2.7343127 2.4143229 2.7538371 C 2.4093509 2.7603541 2.3962343 2.7707915 2.3848674 2.7770915 L 2.36368 2.7884603 L 2.1481893 2.7889771 C 2.0296564 2.7893271 1.927523 2.7880332 1.920813 2.7863932 C 1.902547 2.7819302 1.875136 2.764548 1.866036 2.75177 C 1.8424761 2.7186828 1.8402426 2.6778374 1.857251 2.6458333 L 1.7719849 2.6458333 L 1.6655314 3.0427083 L 1.7259928 3.0427083 C 1.839805 3.0427083 1.9073783 3.1312114 1.8779215 3.2411458 L 1.7719849 3.6380208 C 1.7425282 3.7479548 1.6274148 3.8364583 1.5136027 3.8364583 L 1.3291178 3.8364583 C 1.2153058 3.8364583 1.1472156 3.7479552 1.1766724 3.6380208 L 1.1916585 3.5827271 L 1.0924398 3.5827271 L 1.0299113 3.815271 C 0.99732343 3.9368906 1.07195 4.0348958 1.1978597 4.0348958 L 1.5368571 4.0348958 C 1.662767 4.0348958 1.7910736 3.9368904 1.8236613 3.815271 L 2.0835937 2.8442708 L 2.4866699 2.8442708 L 2.4866699 2.8850952 L 2.4866699 3.0463257 L 2.3295736 3.0463257 C 2.1550355 3.0463257 2.1505712 3.046533 2.1218343 3.0711304 C 2.0839373 3.1035683 2.078562 3.1605857 2.109432 3.2039388 C 2.118532 3.2167168 2.1464598 3.234099 2.1647257 3.238562 C 2.1714357 3.240202 2.273569 3.2414958 2.3921021 3.2411458 L 2.6075928 3.2406291 L 2.6287801 3.2292603 C 2.6401471 3.2229603 2.6532627 3.2125229 2.6582357 3.2060059 C 2.6794937 3.1781429 2.6789292 3.1832378 2.6789062 2.949174 C 2.678902 2.909024 2.6786318 2.8748266 2.6783895 2.8442708 L 3.2716349 2.8442708 C 3.3831196 2.8442708 3.4726562 2.7547339 3.4726562 2.6432495 L 3.4726562 2.2019328 L 3.427181 2.2019328 L 3.2282267 2.2019328 z M 1.839681 2.3921021 L 1.8246948 2.4473958 L 2.2427572 2.4473958 L 2.2427572 2.4329264 L 2.2427572 2.3921021 L 1.839681 2.3921021 z " />
    <path
       id="path10"
       style="fill:#f3924a;fill-opacity:1;stroke-width:0.243035"
       inkscape:label="gun"
       d="M 3.3010905 1.2758911 L 3.3010905 2.0696411 L 3.499528 2.0696411 C 3.6094621 2.0696411 3.6979655 1.981138 3.6979655 1.8712036 L 3.6979655 1.4743286 C 3.6979655 1.3643946 3.6094624 1.2758911 3.499528 1.2758911 L 3.3010905 1.2758911 z M 3.102653 1.3869954 C 3.0836727 1.3929951 3.0637234 1.3973307 3.0427083 1.3973307 L 2.8969808 1.3973307 L 2.8442708 1.3973307 L 2.6453166 1.3973307 C 2.6397046 1.5036939 2.5526388 1.5875 2.444812 1.5875 L 1.8520833 1.5875 C 1.8523256 1.6180562 1.852079 1.6522532 1.8520833 1.6924032 C 1.852092 1.7803981 1.8515597 1.8280845 1.850533 1.8629354 L 2.8049967 1.8629354 C 2.8599637 1.8629354 2.9042155 1.9071872 2.9042155 1.9621541 C 2.9042155 2.0171211 2.8599647 2.0613729 2.8049967 2.0613729 L 1.2174967 2.0613729 C 1.1858374 2.0613729 1.1581242 2.0466016 1.1399821 2.0236491 L 1.0071737 2.5192261 C 1.0546581 2.4816414 1.1130687 2.4582479 1.1715047 2.4582479 L 1.3559896 2.4582479 C 1.4698018 2.4582479 1.5373751 2.546751 1.5079183 2.6566854 L 1.4019816 3.0535604 C 1.3725249 3.1634944 1.2574115 3.2519979 1.1435994 3.2519979 L 0.95911458 3.2519979 C 0.8453025 3.2519979 0.77721238 3.1634948 0.80666911 3.0535604 L 0.90020345 2.7042277 C 0.86602902 2.732995 0.82603182 2.7550895 0.78393148 2.7672729 L 0.65990804 3.2313273 C 0.62732017 3.3529469 0.70194658 3.4504354 0.82785645 3.4504354 L 1.1668538 3.4504354 C 1.2927637 3.4504354 1.4210704 3.3529467 1.453658 3.2313273 L 1.7135905 2.2598104 L 2.1166667 2.2598104 L 2.1166667 2.3006348 L 2.1166667 2.4618652 L 1.9590535 2.4618652 C 1.7845155 2.4618652 1.7805679 2.4625893 1.7518311 2.4871867 C 1.7139341 2.5196247 1.7085587 2.5761253 1.7394287 2.6194784 C 1.7485287 2.6322563 1.7764565 2.6501553 1.7947225 2.6546183 C 1.8014325 2.6562583 1.9035657 2.6570354 2.0220988 2.6566854 L 2.2375895 2.6561686 L 2.2587769 2.6447998 C 2.2701438 2.6384998 2.2832594 2.6280624 2.2882324 2.6215454 C 2.3094904 2.5936824 2.308926 2.5987773 2.308903 2.3647135 C 2.3088987 2.3245636 2.3086285 2.2903662 2.3083862 2.2598104 L 2.9016317 2.2598104 C 3.0131164 2.2598104 3.102653 2.1702735 3.102653 2.0587891 L 3.102653 1.3869954 z M 1.2567708 1.5875 L 1.1813232 1.8701701 C 1.1925489 1.8657841 1.2046811 1.8629354 1.2174967 1.8629354 L 1.2660726 1.8629354 C 1.2705767 1.8445111 1.2803471 1.8273538 1.2955282 1.8143595 C 1.324265 1.789762 1.328213 1.7895549 1.5027507 1.7895549 L 1.659847 1.7895549 L 1.659847 1.6283244 L 1.659847 1.5875 L 1.2567708 1.5875 z " />
    <path
       id="rect1"
       style="fill:#f3924a;fill-opacity:1;stroke-width:0.243035"
       d="m 2.0283002,0.06614949 c -0.057564,0 -0.1038697,0.0463057 -0.1038697,0.10386961 v 0.094568 H 1.2225353 0.88340878 0.53808101 c -0.1114846,0 -0.20115049,0.089666 -0.20115049,0.20115046 V 1.2540616 c 0,9.144e-4 -1.194e-5,0.0018 0,0.00271 v 0.098444 0.098444 h 3.8757e-4 L 0.07686887,2.4264705 C 0.04428097,2.5480902 0.11916567,2.645837 0.24507566,2.645837 h 0.33912655 c 0.12591,0 0.25382887,-0.097747 0.28641657,-0.2193665 L 1.1306805,1.455212 H 1.5337567 V 1.495907 1.6571374 H 1.376402 c -0.1745382,0 -0.1786148,5.946e-4 -0.2073517,0.025192 -0.037897,0.032438 -0.043272,0.089197 -0.012402,0.1325501 0.0091,0.012778 0.036769,0.030419 0.055035,0.034882 0.00671,0.00164 0.1089723,0.00268 0.2275055,0.00233 l 0.2154908,-7.752e-4 0.020929,-0.01124 c 0.011367,-0.0063 0.024483,-0.016737 0.029456,-0.023254 0.021258,-0.027863 0.020952,-0.022897 0.020929,-0.256961 -4.3e-6,-0.04015 -1.453e-4,-0.074089 -3.876e-4,-0.1046448 h 0.5929871 c 0.1114848,0 0.2011505,-0.089666 0.2011505,-0.2011505 V 0.46574196 c 0,-0.11056726 -0.088229,-0.19969016 -0.1984375,-0.20115046 V 0.1700191 0.06614949 H 2.2174359 2.122868 Z M 2.7181805,0.4711635 v 0.79375 H 2.916618 c 0.1099342,0 0.1984375,-0.088503 0.1984375,-0.1984375 V 0.669601 c 0,-0.1099341 -0.088503,-0.1984375 -0.1984375,-0.1984375 z M 0.63458681,1.058337 H 2.2220867 c 0.054967,0 0.099219,0.044252 0.099219,0.099219 0,0.054967 -0.044251,0.099219 -0.099219,0.099219 H 0.63458681 c -0.054967,0 -0.099219,-0.044252 -0.099219,-0.099219 0,-0.054967 0.044252,-0.099219 0.099219,-0.099219 z m -0.045734,0.5953125 h 0.1840973 c 0.11381227,0 0.18177307,0.088503 0.15231627,0.1984375 L 0.81907158,2.248962 C 0.78961491,2.3588961 0.67437251,2.4473995 0.56056031,2.4473995 h -0.1844849 c -0.1138122,0 -0.18177304,-0.088503 -0.15231628,-0.1984375 L 0.3299542,1.852087 C 0.35941097,1.7421528 0.47504091,1.6536495 0.58885281,1.6536495 Z"
       inkscape:label="gun" />
  </g>
</svg>
